<?xml version="1.0" standalone="no"?>
<!DOCTYPE svg PUBLIC "-//W3C//DTD SVG 20010904//EN"
 "http://www.w3.org/TR/2001/REC-SVG-20010904/DTD/svg10.dtd">
<svg version="1.0" xmlns="http://www.w3.org/2000/svg"
 width="368.000000pt" height="280.000000pt" viewBox="0 0 368.000000 280.000000"
 preserveAspectRatio="xMidYMid meet">
<g transform="translate(0.000000,280.000000) scale(0.100000,-0.100000)"
fill="#000000" stroke="none">
<path d="M1375 2140 c-192 -17 -337 -47 -419 -86 -28 -13 -67 -24 -88 -24 -93
0 -318 -40 -318 -57 0 -2 -8 -39 -17 -81 -25 -109 -25 -403 -1 -483 10 -30 26
-62 35 -71 28 -24 105 -32 146 -14 20 8 38 12 40 9 3 -2 31 -11 62 -19 32 -9
67 -21 79 -28 11 -7 87 -53 169 -101 99 -59 147 -94 147 -105 0 -36 33 -118
58 -145 41 -45 86 -58 213 -63 110 -4 118 -3 139 18 l22 22 92 -18 c76 -16
133 -19 341 -17 278 1 341 9 690 85 105 23 211 44 237 48 53 7 120 50 146 92
15 26 15 29 -6 57 -20 27 -21 36 -13 98 5 37 14 80 21 95 16 33 0 75 -66 180
-86 134 -186 220 -302 257 -57 19 -88 22 -161 20 l-90 -4 14 22 c24 36 18 59
-20 77 -40 19 -82 13 -90 -15 -8 -24 -17 -24 -41 2 -25 28 -117 93 -223 159
-121 75 -200 90 -486 95 -121 2 -261 0 -310 -5z m570 -25 c109 -17 154 -36
274 -119 40 -28 81 -55 90 -61 22 -14 175 -147 179 -155 3 -7 -94 -22 -258
-41 -52 -7 -273 -13 -491 -14 l-397 -3 -6 26 c-3 15 -9 86 -12 158 l-7 131
324 7 c178 4 349 11 379 15 51 7 -202 6 -746 -3 -259 -5 -263 -6 -302 -75 -28
-50 -28 -79 3 -116 17 -21 23 -24 18 -10 -6 18 -5 19 11 5 17 -14 17 -15 0
-21 -11 -4 -35 -10 -55 -13 -54 -9 -73 -27 -65 -62 8 -35 48 -54 110 -54 26 0
54 -11 91 -35 45 -30 57 -34 79 -25 35 13 33 32 -10 69 -25 23 -39 29 -48 22
-6 -6 -41 -13 -76 -16 -52 -5 -72 -3 -99 12 -60 32 -49 39 56 39 54 -1 101 -5
105 -10 3 -5 15 -11 25 -12 17 -2 114 -34 122 -40 1 -1 -11 -20 -27 -41 -18
-22 -39 -67 -49 -105 l-19 -68 -158 90 c-87 50 -167 97 -178 104 -25 18 -6 31
23 15 17 -9 24 -8 37 4 18 19 8 52 -13 43 -11 -4 -15 2 -15 24 0 35 -12 44
-58 42 -33 -1 -34 0 -16 12 10 8 52 23 92 35 91 28 95 45 5 22 -84 -22 -128
-44 -149 -75 -14 -22 -14 -27 0 -54 8 -16 25 -36 38 -44 19 -13 26 -30 35 -94
6 -44 15 -87 18 -96 5 -13 -6 -10 -50 14 -31 16 -58 28 -61 26 -2 -3 22 -19
54 -36 53 -29 61 -36 72 -77 7 -25 11 -47 9 -49 -2 -1 -24 -11 -49 -20 -25
-10 -51 -21 -59 -24 -9 -3 -12 -1 -7 7 4 6 4 11 -1 10 -28 -5 -31 7 -36 154
-4 98 -11 171 -22 207 -9 30 -17 63 -16 73 0 9 -4 15 -8 12 -5 -2 -14 2 -21
10 -27 33 -70 0 -70 -52 0 -9 -3 -14 -6 -11 -9 10 7 98 17 92 5 -3 9 0 9 5 0
20 37 11 54 -11 15 -23 16 -22 4 5 -10 24 -17 28 -40 25 -27 -4 -28 -4 -22 31
9 50 17 57 72 65 26 3 70 11 97 16 28 5 78 9 113 9 46 1 76 8 112 26 64 33
184 61 335 79 166 19 532 20 660 1z m-639 -110 c-6 -38 9 -230 20 -267 4 -15
-1 -18 -25 -18 l-31 0 0 149 c0 82 -3 156 -6 164 -4 11 2 15 21 13 25 -1 26
-3 21 -41z m-52 19 c3 -9 6 -79 5 -155 -1 -117 -3 -139 -16 -139 -11 0 -13 5
-8 18 15 35 15 56 0 24 -13 -27 -19 -32 -38 -26 -52 16 -86 33 -115 60 -37 35
-84 69 -95 69 -11 0 -27 27 -26 45 0 8 6 2 13 -15 l14 -30 -5 40 c-4 31 1 48
19 75 27 39 51 46 174 49 58 1 73 -2 78 -15z m1269 -135 c12 -7 24 -13 26 -15
1 -1 -7 -21 -20 -43 l-23 -41 -28 27 c-18 17 -28 37 -28 55 0 23 4 28 26 28
14 0 35 -5 47 -11z m-1906 -94 c32 -58 48 -155 47 -297 l-1 -127 29 -12 c15
-6 28 -15 28 -20 0 -15 -114 -10 -137 6 -29 20 -50 83 -33 98 10 9 11 9 6 -1
-11 -20 2 -48 24 -49 19 -2 19 -1 3 24 -33 51 -27 333 7 333 17 0 25 -53 25
-170 0 -147 -7 -195 -29 -194 -9 1 -16 -2 -16 -7 0 -15 26 -10 43 9 27 30 40
107 35 215 -6 115 -25 177 -56 177 -21 0 -35 -27 -51 -95 -8 -36 -9 -37 -10
-10 -2 56 35 168 53 162 6 -2 21 -21 33 -42z m452 12 c6 -8 8 -17 4 -20 -15
-15 -163 -2 -163 14 0 19 143 24 159 6z m-241 -33 c3 -27 -2 -34 -27 -47 -28
-14 -31 -13 -55 12 -28 29 -34 56 -13 65 6 3 30 4 52 3 37 -2 40 -4 43 -33z
m1905 4 c9 -5 22 -6 27 -3 18 11 113 -41 177 -96 55 -48 147 -169 188 -250 18
-35 10 -104 -15 -129 -15 -15 -15 -18 -2 -26 25 -16 -1 -84 -43 -113 -55 -37
-265 -105 -265 -86 0 3 17 20 38 39 38 36 81 58 189 98 36 13 64 29 66 39 4
13 -20 6 -104 -31 -102 -45 -150 -77 -202 -135 -12 -13 -33 -26 -47 -30 -19
-5 -9 8 40 54 61 56 141 101 274 151 16 6 27 13 24 15 -8 8 -217 -83 -249
-107 -16 -13 -53 -44 -82 -70 -46 -41 -61 -48 -131 -62 -44 -9 -81 -14 -83
-12 -2 1 4 19 12 39 27 65 23 73 -46 81 -34 3 -173 6 -309 6 l-248 0 -53 -44
c-30 -25 -72 -66 -93 -92 l-39 -46 -76 6 c-124 11 -192 27 -187 46 16 52 16
77 1 156 -30 165 -86 310 -146 379 -25 28 -38 35 -68 35 -20 0 -42 -5 -49 -12
-9 -9 -12 -9 -12 -1 0 17 41 43 68 43 52 0 123 -98 167 -230 l21 -65 70 -23
c332 -111 577 -145 889 -123 202 15 338 34 489 71 113 28 196 66 196 91 0 6
-13 0 -30 -14 -48 -40 -179 -75 -430 -114 -163 -25 -607 -25 -730 0 -87 17
-420 110 -439 121 -6 4 -15 25 -21 46 -6 22 -23 68 -39 102 -15 35 -28 68 -29
73 -2 12 79 41 134 48 37 5 40 3 186 -136 82 -78 165 -149 186 -159 34 -15
151 -37 280 -53 42 -6 52 -4 52 8 0 8 -10 22 -22 30 -22 15 -16 16 89 16 155
1 563 61 662 97 l43 17 22 -28 22 -28 22 28 c12 15 22 37 22 49 -1 16 -4 14
-15 -11 -27 -62 -57 -32 -71 72 -10 72 -16 85 -73 147 -49 54 -137 116 -148
105 -3 -3 13 -15 36 -26 54 -28 125 -96 115 -112 -4 -8 -3 -10 4 -5 17 11 40
-33 52 -104 16 -91 13 -92 -244 -135 -347 -58 -545 -69 -596 -36 -30 20 -129
67 -232 110 -40 17 -116 62 -168 101 -67 49 -101 68 -115 64 -15 -4 -16 -3 -6
4 17 12 -14 34 -95 67 l-56 23 349 5 c344 5 476 14 603 43 36 8 71 15 78 16 6
1 12 5 12 9 0 19 166 16 203 -3z m-1873 -58 c-20 -12 -33 -1 -19 16 9 11 15
12 23 4 8 -8 7 -13 -4 -20z m294 -16 c23 -21 26 -28 15 -35 -20 -12 -20 -12
-79 20 l-54 30 40 4 c21 2 41 4 44 5 3 1 18 -10 34 -24z m400 -37 c43 -20 77
-40 74 -42 -2 -3 -36 -7 -74 -9 -43 -2 -91 -13 -124 -27 -40 -17 -55 -20 -58
-11 -2 7 -21 24 -42 37 -48 30 -84 21 -117 -28 -26 -38 -31 -61 -7 -31 15 19
16 19 9 -1 -25 -68 -33 -133 -28 -218 3 -51 1 -111 -5 -134 -8 -33 -6 -44 6
-57 35 -35 1 -21 -97 41 -158 98 -240 139 -306 153 l-59 12 49 19 c28 11 57
19 66 19 9 0 54 -28 100 -63 46 -34 114 -84 151 -110 l67 -48 7 25 c3 14 4 31
1 38 -3 7 -6 1 -6 -14 -1 -16 -4 -28 -7 -28 -15 0 -73 54 -67 63 3 6 1 7 -6 3
-7 -5 -43 16 -89 51 -42 32 -92 68 -111 79 -27 17 -37 32 -47 70 -20 79 -45
226 -40 231 2 3 20 -6 38 -20 18 -14 96 -61 173 -105 l140 -80 12 -84 12 -83
-5 78 c-4 56 -1 83 8 95 10 12 10 14 1 8 -32 -18 8 114 50 172 l32 43 110 -3
c104 -3 114 -5 189 -41z m151 -95 c66 -45 75 -55 64 -68 -7 -8 -6 -15 2 -20 7
-4 9 -3 5 4 -14 23 16 22 47 -1 18 -13 97 -52 176 -86 127 -55 230 -116 216
-129 -6 -7 -191 17 -251 32 -82 21 -227 137 -209 167 6 8 4 10 -4 5 -8 -5 -37
16 -79 56 -37 34 -69 67 -71 72 -7 16 64 -6 104 -32z m-391 -1 c3 -5 -8 -14
-25 -21 -40 -17 -83 -90 -75 -128 5 -20 4 -23 -4 -12 -20 30 -2 118 31 151 20
20 64 26 73 10z m-767 -63 c-2 -13 -4 -5 -4 17 -1 22 1 32 4 23 2 -10 2 -28 0
-40z m831 -18 c65 -110 124 -360 106 -451 -15 -73 -3 -91 74 -108 34 -8 62
-18 62 -22 0 -5 -18 -14 -41 -20 -31 -10 -62 -10 -142 -1 -101 12 -135 25
-169 66 -26 31 -21 39 7 11 70 -71 141 17 152 191 16 237 -100 430 -184 305
-30 -45 -30 -27 1 23 24 41 61 67 86 63 8 -1 30 -27 48 -57z m-42 -14 c18 -13
17 -14 -15 -13 -29 2 -36 -3 -53 -35 -68 -130 -31 -446 54 -456 22 -3 32 3 48
30 11 18 20 27 20 21 0 -7 -13 -27 -28 -44 -35 -39 -62 -34 -97 19 -72 110
-74 376 -4 466 23 29 46 33 75 12z m21 -66 c33 -66 48 -193 34 -287 -19 -130
-58 -177 -97 -119 -55 85 -60 354 -8 434 22 33 46 24 71 -28z m60 -242 c-2
-18 -4 -6 -4 27 0 33 2 48 4 33 2 -15 2 -42 0 -60z m1715 -22 c24 -43 -55
-113 -138 -122 -27 -3 -96 -17 -154 -31 -172 -40 -407 -82 -525 -93 -124 -12
-430 -15 -491 -5 -248 42 -353 70 -333 89 3 3 41 -1 84 -9 44 -8 110 -14 147
-15 l67 0 70 70 c82 83 47 76 424 86 196 5 267 4 267 -4 0 -6 -10 -31 -22 -56
-18 -37 -26 -45 -55 -48 -18 -2 -33 -3 -33 -2 0 1 12 23 26 48 15 26 24 49 21
52 -6 6 -408 -23 -446 -33 -14 -3 -34 -11 -43 -18 -30 -20 -90 -105 -85 -120
8 -19 95 -35 180 -34 l72 2 -80 7 c-112 10 -165 20 -165 31 0 6 26 8 68 4 70
-7 278 12 433 41 203 37 355 63 367 64 7 0 11 4 8 9 -3 4 6 6 19 3 34 -6 180
41 235 76 50 32 68 34 82 8z m-947 -17 c-110 -5 -214 -11 -231 -14 -21 -4 -53
-28 -100 -75 -38 -38 -73 -70 -78 -70 -16 0 119 132 154 150 31 17 58 19 245
18 l210 -1 -200 -8z m285 -36 c0 -21 -54 -94 -73 -98 -115 -25 -457 -48 -457
-29 0 14 64 83 83 89 12 4 107 14 211 23 104 9 200 18 213 19 13 2 23 0 23 -4z"/>
<path d="M837 1989 c-9 -6 -15 -14 -12 -19 9 -15 -44 -23 -78 -12 -32 10 -31
10 16 11 26 1 47 4 47 9 0 4 -35 5 -77 4 l-78 -4 40 -15 c22 -9 59 -18 81 -20
36 -4 46 -1 73 26 31 30 24 41 -12 20z"/>
<path d="M665 1891 c-17 -33 -11 -63 11 -54 19 7 47 60 39 73 -12 19 -35 10
-50 -19z m24 -23 c-12 -20 -14 -21 -17 -5 -2 10 2 25 9 34 18 21 23 0 8 -29z"/>
<path d="M731 1779 c-1 -8 10 -26 24 -39 14 -13 25 -19 25 -13 0 6 -7 13 -15
17 -9 3 -20 16 -25 28 -5 15 -9 17 -9 7z"/>
<path d="M2650 1704 c0 -3 12 -15 26 -27 41 -32 84 -96 77 -115 -9 -24 -43
-52 -63 -52 -10 0 -62 33 -116 74 -55 41 -103 72 -107 69 -4 -3 32 -34 80 -71
48 -36 94 -72 101 -79 40 -39 122 11 122 75 0 26 -10 43 -50 82 -45 45 -70 61
-70 44z"/>
<path d="M1830 1641 c0 -27 294 -143 430 -170 139 -28 217 -18 172 21 -30 27
-202 120 -214 116 -6 -2 4 -13 23 -24 96 -53 169 -99 169 -107 0 -10 -41 -4
-175 23 -92 19 -267 80 -356 126 -27 13 -49 20 -49 15z"/>
<path d="M3116 1138 c6 -27 4 -29 -92 -96 -11 -7 0 -3 23 9 24 13 53 33 65 46
18 19 19 26 10 45 -11 22 -11 22 -6 -4z"/>
<path d="M4 100 c0 -58 1 -81 3 -53 2 29 2 77 0 105 -2 29 -3 6 -3 -52z"/>
<path d="M1135 95 c0 -25 3 -45 8 -45 4 0 7 11 7 25 0 14 5 25 10 25 6 0 10
-11 10 -25 0 -14 5 -25 10 -25 6 0 10 6 10 14 0 25 -12 46 -26 46 -8 0 -14 7
-14 15 0 8 -3 15 -7 15 -5 0 -8 -20 -8 -45z"/>
<path d="M1633 128 c1 -7 -8 -14 -20 -16 -13 -2 -23 -8 -23 -15 0 -8 -3 -8
-12 1 -28 28 -66 3 -52 -33 7 -18 35 -20 52 -3 9 9 12 9 12 0 0 -7 10 -11 23
-11 16 1 18 2 5 6 -24 6 -23 39 2 46 17 4 20 0 21 -26 0 -25 2 -28 8 -13 7 18
8 18 14 3 3 -9 17 -17 29 -16 l23 0 -24 10 c-17 7 -22 15 -18 29 6 22 -8 28
-16 8 -3 -7 -6 -1 -6 15 -1 15 -5 27 -11 27 -5 0 -9 -6 -7 -12z m-68 -48 c0
-7 -6 -15 -12 -17 -8 -3 -13 4 -13 17 0 13 5 20 13 18 6 -3 12 -11 12 -18z"/>
<path d="M1261 123 c-1 -7 -8 -13 -16 -13 -9 0 -15 -9 -15 -25 0 -34 -18 -32
-23 3 -4 25 -4 25 -6 -5 -1 -28 2 -33 23 -33 19 0 23 5 21 25 -2 14 1 25 6 25
5 0 9 -11 9 -25 0 -17 5 -25 18 -24 10 0 12 3 5 6 -18 7 -16 43 2 43 9 0 15
-9 15 -25 0 -17 5 -25 18 -24 10 0 12 3 5 6 -7 2 -13 13 -13 23 0 10 6 21 13
23 9 4 9 6 -1 6 -7 1 -10 6 -7 11 3 6 1 10 -4 10 -6 0 -11 -4 -11 -10 0 -14
-27 -12 -33 3 -4 10 -6 10 -6 0z"/>
<path d="M1488 118 c-9 -25 5 -68 21 -67 10 0 11 2 4 6 -15 5 -17 40 -4 45 5
2 3 8 -4 15 -10 9 -15 9 -17 1z"/>
<path d="M2027 123 c-11 -10 -8 -25 3 -18 6 3 10 -5 10 -19 0 -13 -6 -27 -12
-29 -7 -3 12 -5 42 -4 l55 2 0 35 c-1 28 -5 36 -23 38 -29 4 -30 -23 -1 -38
26 -14 17 -24 -22 -26 -27 -2 -29 1 -29 32 0 32 -9 42 -23 27z"/>
<path d="M2140 110 c0 -11 7 -20 15 -20 8 0 15 -7 15 -16 0 -10 -6 -14 -15
-10 -8 3 -15 1 -15 -4 0 -16 37 -11 44 6 8 20 -1 34 -20 34 -23 0 -16 18 9 23
19 4 18 4 -5 6 -22 1 -28 -4 -28 -19z"/>
<path d="M2200 105 c0 -14 5 -25 11 -25 8 0 8 -5 -1 -15 -10 -12 -10 -15 3
-15 17 0 42 54 32 69 -3 6 -15 11 -26 11 -14 0 -19 -7 -19 -25z m30 0 c0 -8
-4 -15 -10 -15 -5 0 -10 7 -10 15 0 8 5 15 10 15 6 0 10 -7 10 -15z"/>
<path d="M2260 121 c0 -6 6 -8 13 -5 10 3 14 -4 15 -26 1 -27 -2 -30 -21 -24
-17 5 -19 3 -11 -6 7 -6 20 -10 30 -8 14 2 19 12 19 38 0 29 -4 36 -22 38 -13
2 -23 -1 -23 -7z"/>
<path d="M2321 113 c0 -10 3 -13 6 -5 2 6 9 12 15 12 6 0 8 -7 5 -15 -4 -8 -2
-17 4 -20 14 -9 -1 -27 -17 -21 -8 3 -14 1 -14 -4 0 -14 34 -12 48 2 9 9 12 9
12 0 0 -16 32 -16 48 0 9 9 12 9 12 -1 0 -21 45 -8 46 14 1 11 2 26 3 33 1 11
41 18 41 7 0 -4 -7 -19 -15 -35 -9 -17 -12 -30 -7 -30 7 0 42 62 42 75 0 2
-25 4 -55 4 -51 -1 -55 -3 -55 -25 0 -13 -4 -24 -10 -24 -5 0 -9 10 -7 22 1
17 -4 24 -20 26 -19 3 -23 -1 -23 -24 0 -15 -3 -24 -7 -20 -4 4 -8 15 -8 24 0
10 -9 18 -22 20 -17 3 -23 -1 -22 -15z m91 -38 c0 -5 -5 -11 -11 -13 -6 -2
-11 4 -11 13 0 9 5 15 11 13 6 -2 11 -8 11 -13z m60 0 c0 -5 -5 -11 -11 -13
-6 -2 -11 4 -11 13 0 9 5 15 11 13 6 -2 11 -8 11 -13z"/>
<path d="M2561 116 c-9 -11 -8 -17 3 -29 11 -11 12 -17 3 -26 -8 -8 -8 -11 1
-11 17 0 45 47 38 65 -7 19 -30 19 -45 1z m29 -11 c0 -8 -4 -15 -10 -15 -5 0
-10 7 -10 15 0 8 5 15 10 15 6 0 10 -7 10 -15z"/>
<path d="M1087 103 c-4 -3 1 -15 10 -26 17 -19 17 -20 0 -14 -11 4 -16 3 -12
-3 3 -6 13 -10 21 -10 17 0 19 26 3 36 -8 4 -7 9 2 15 11 7 11 9 -2 9 -9 0
-19 -3 -22 -7z"/>
<path d="M1336 95 c-8 -23 4 -45 25 -45 10 0 19 4 19 10 0 5 -7 7 -15 4 -8 -4
-15 -1 -15 5 0 6 7 11 15 11 8 0 15 7 15 15 0 8 -9 15 -19 15 -10 0 -21 -7
-25 -15z"/>
<path d="M1401 77 c2 -31 2 -31 6 -4 2 15 7 27 11 27 10 -1 42 -26 42 -33 0
-3 -8 -8 -17 -10 -14 -4 -12 -5 5 -6 23 -1 31 22 11 35 -8 5 -7 9 1 14 8 5 -2
8 -24 8 -34 0 -36 -2 -35 -31z"/>
<path d="M1725 100 c-4 -6 -3 -19 0 -30 5 -16 14 -19 53 -17 43 2 47 4 47 27
0 23 -4 25 -47 27 -26 1 -50 -2 -53 -7z m45 -20 c0 -11 -7 -20 -15 -20 -15 0
-21 21 -8 33 12 13 23 7 23 -13z m43 14 c8 -8 -3 -34 -14 -34 -5 0 -9 9 -9 20
0 19 11 26 23 14z"/>
<path d="M1841 77 c2 -30 2 -30 6 -4 2 15 9 27 14 27 5 0 10 -12 10 -27 1 -21
2 -23 6 -8 8 34 23 41 23 12 0 -15 5 -27 11 -27 6 0 9 12 7 28 -3 24 -8 27
-40 29 -37 2 -38 1 -37 -30z"/>
<path d="M1955 99 c-10 -15 3 -25 16 -12 7 7 7 13 1 17 -6 3 -14 1 -17 -5z"/>
</g>
</svg>
